<svg xmlns="http://www.w3.org/2000/svg" width="350" height="350" fill="#727272">
    <path
        d="M174 270C113 271 84 237 80 207 78 189 79 172 76 172 46 154 34 142 21 109-4 49 45 62 55 66 71 72 79 83 90 94 103 104 160 104 174 104ZM110 150C104 153 98 160 95 166S92 184 95 190C103 208 126 216 142 205 149 200 153 195 155 188 161 172 150 153 133 147 128 145 115 147 110 150ZM174 270C236 271 265 237 269 207 271 189 270 172 273 172 303 154 315 142 328 109 353 49 304 62 294 66 278 72 270 83 259 94 246 104 189 104 174 104ZM239 150C245 153 251 160 254 166S257 184 254 190C246 208 223 216 207 205 200 200 196 195 194 188 188 172 199 153 216 147 221 145 234 147 239 150Z" />
    <path
        d="m133 185c-5 0-7-2-7-6s2-7 7-7 7 3 7 7-3 6-7 6zm-17 17c9 3 18 2 25-5 8-7 11-16 8-26-2-6-8-13-13-16-20-10-42 8-36 29 2 7 9 15 16 18z" />
    <path
        d="m216 185c5 0 7-2 7-6s-2-7-7-7-7 3-7 7 3 6 7 6zm17 17c-9 3-18 2-25-5-8-7-11-16-8-26 2-6 8-13 13-16 20-10 42 8 36 29-2 7-9 15-16 18z" />
</svg>